<?xml version="1.0" standalone="no"?>
<!DOCTYPE svg PUBLIC "-//W3C//DTD SVG 20010904//EN"
 "http://www.w3.org/TR/2001/REC-SVG-20010904/DTD/svg10.dtd">
<svg version="1.0" xmlns="http://www.w3.org/2000/svg"
 width="260.000000pt" height="260.000000pt" viewBox="0 0 260.000000 260.000000"
 preserveAspectRatio="xMidYMid meet">
<metadata>
Created by potrace 1.11, written by Peter Selinger 2001-2013
</metadata>
<g transform="translate(0.000000,260.000000) scale(0.100000,-0.100000)"
fill="#000000" stroke="none">
<path d="M1979 1650 c-1 -3 -2 -33 -3 -68 -2 -67 8 -91 19 -43 12 54 38 71
113 71 l68 0 -1 -242 c-1 -134 -4 -253 -9 -265 -4 -14 -20 -26 -39 -32 -23 -7
9 -9 113 -9 80 1 135 3 124 5 -51 10 -54 24 -55 259 0 120 0 234 0 252 l1 32
68 0 c74 0 112 -21 112 -60 0 -10 5 -22 10 -25 6 -4 10 18 10 59 0 36 -3 66
-7 66 -5 0 -124 1 -266 3 -141 1 -257 0 -258 -3z"/>
<path d="M335 1643 c-88 -19 -159 -74 -203 -158 -34 -67 -39 -168 -11 -242 46
-120 151 -185 289 -178 84 3 91 5 140 28 49 22 88 61 94 91 6 33 0 33 -35 -4
-85 -88 -234 -89 -307 -2 -39 46 -54 93 -57 177 -4 139 43 233 128 256 105 28
195 -20 237 -127 22 -57 22 -58 24 64 1 96 -3 112 -23 88 -9 -10 -21 -11 -54
-4 -48 10 -192 17 -222 11z"/>
<path d="M686 1643 c12 -2 30 -13 40 -24 16 -18 18 -43 18 -264 0 -221 -2
-246 -18 -264 -10 -11 -28 -22 -40 -24 -11 -2 44 -4 124 -5 104 0 136 2 113 9
-41 12 -46 30 -48 167 l-1 113 140 -3 140 -3 0 -106 c-1 -138 -6 -156 -47
-168 -23 -7 7 -9 113 -9 105 0 136 2 113 9 -19 6 -35 18 -39 32 -11 32 -12
467 -1 499 6 19 19 31 40 37 23 7 -9 9 -113 9 -106 0 -136 -2 -113 -9 23 -7
35 -17 39 -36 6 -22 9 -137 5 -195 -1 -16 -15 -18 -136 -18 -101 0 -135 3
-136 13 -6 56 -3 186 5 205 5 12 23 26 40 31 22 6 -13 9 -114 9 -80 -1 -135
-3 -124 -5z"/>
<path d="M1611 1558 c-101 -286 -153 -425 -167 -446 -8 -13 -26 -27 -40 -32
-13 -5 -24 -12 -24 -15 0 -3 42 -5 93 -5 l92 0 -33 20 c-38 23 -38 30 -3 133
l23 67 88 0 88 0 27 -67 c15 -38 29 -78 31 -90 4 -23 -22 -57 -36 -48 -5 3
-11 1 -15 -5 -4 -7 42 -10 137 -10 142 1 143 1 111 18 -42 22 -56 43 -88 128
-14 38 -29 78 -35 89 -5 11 -32 79 -59 150 -83 218 -76 205 -119 205 l-38 0
-33 -92z m68 -146 c17 -46 31 -86 31 -88 0 -2 -32 -4 -71 -4 -81 0 -77 -13
-32 118 15 40 29 69 33 65 4 -4 21 -46 39 -91z"/>
</g>
</svg>
